<svg width="164" height="47" viewBox="0 0 164 47" fill="none" xmlns="http://www.w3.org/2000/svg">
<path d="M71.096 25.112C70.8613 25.112 70.68 25.048 70.552 24.92C70.424 24.7813 70.36 24.5893 70.36 24.344V14.472C70.36 14.2267 70.424 14.04 70.552 13.912C70.6907 13.784 70.8773 13.72 71.112 13.72H74.92C76.136 13.72 77.0693 14.008 77.72 14.584C78.3813 15.1493 78.712 15.9547 78.712 17C78.712 17.6827 78.5627 18.2693 78.264 18.76C77.9653 19.24 77.5333 19.608 76.968 19.864C76.4027 20.12 75.72 20.248 74.92 20.248L75.08 20.024H75.432C75.8587 20.024 76.2267 20.1307 76.536 20.344C76.856 20.5573 77.1387 20.8987 77.384 21.368L78.856 24.072C78.952 24.2427 78.9947 24.408 78.984 24.568C78.9733 24.728 78.9147 24.8613 78.808 24.968C78.7013 25.064 78.5467 25.112 78.344 25.112C78.1307 25.112 77.96 25.0693 77.832 24.984C77.704 24.888 77.592 24.7493 77.496 24.568L75.768 21.4C75.5333 20.952 75.2667 20.6587 74.968 20.52C74.6693 20.3707 74.2693 20.296 73.768 20.296H71.848V24.344C71.848 24.5893 71.784 24.7813 71.656 24.92C71.5387 25.048 71.352 25.112 71.096 25.112ZM71.848 19.144H74.68C75.5333 19.144 76.1733 18.968 76.6 18.616C77.0267 18.2533 77.24 17.7253 77.24 17.032C77.24 16.3387 77.0267 15.816 76.6 15.464C76.1733 15.112 75.5333 14.936 74.68 14.936H71.848V19.144ZM84.0581 25.144C83.2901 25.144 82.6235 24.9787 82.0581 24.648C81.4928 24.3173 81.0555 23.848 80.7461 23.24C80.4368 22.632 80.2821 21.9173 80.2821 21.096C80.2821 20.4773 80.3675 19.9227 80.5381 19.432C80.7195 18.9307 80.9755 18.504 81.3061 18.152C81.6368 17.8 82.0315 17.5333 82.4901 17.352C82.9595 17.16 83.4821 17.064 84.0581 17.064C84.8261 17.064 85.4928 17.2293 86.0581 17.56C86.6235 17.8907 87.0608 18.36 87.3701 18.968C87.6795 19.5653 87.8341 20.2747 87.8341 21.096C87.8341 21.7147 87.7435 22.2747 87.5621 22.776C87.3915 23.2773 87.1408 23.704 86.8101 24.056C86.4795 24.408 86.0795 24.68 85.6101 24.872C85.1515 25.0533 84.6341 25.144 84.0581 25.144ZM84.0581 23.992C84.5275 23.992 84.9328 23.88 85.2741 23.656C85.6261 23.432 85.8928 23.1067 86.0741 22.68C86.2661 22.2533 86.3621 21.7253 86.3621 21.096C86.3621 20.1573 86.1541 19.4427 85.7381 18.952C85.3221 18.4613 84.7621 18.216 84.0581 18.216C83.5995 18.216 83.1941 18.328 82.8421 18.552C82.5008 18.7653 82.2341 19.0853 82.0421 19.512C81.8501 19.9387 81.7541 20.4667 81.7541 21.096C81.7541 22.0347 81.9621 22.7547 82.3781 23.256C82.8048 23.7467 83.3648 23.992 84.0581 23.992ZM93.7793 25.144C93.0753 25.144 92.4726 24.968 91.9713 24.616C91.4699 24.264 91.1339 23.7893 90.9633 23.192L91.1393 22.952V24.36C91.1393 24.6053 91.0753 24.792 90.9473 24.92C90.8299 25.048 90.6539 25.112 90.4193 25.112C90.1953 25.112 90.0193 25.048 89.8913 24.92C89.7633 24.792 89.6993 24.6053 89.6993 24.36V14.344C89.6993 14.0987 89.7633 13.9173 89.8913 13.8C90.0193 13.672 90.1953 13.608 90.4193 13.608C90.6539 13.608 90.8353 13.672 90.9633 13.8C91.0913 13.9173 91.1553 14.0987 91.1553 14.344V18.968H90.9793C91.1499 18.392 91.4859 17.9333 91.9873 17.592C92.4886 17.24 93.0859 17.064 93.7793 17.064C94.4726 17.064 95.0753 17.2293 95.5873 17.56C96.1099 17.88 96.5099 18.344 96.7873 18.952C97.0753 19.5493 97.2193 20.264 97.2193 21.096C97.2193 21.9173 97.0753 22.6373 96.7873 23.256C96.4993 23.864 96.0993 24.3333 95.5873 24.664C95.0753 24.984 94.4726 25.144 93.7793 25.144ZM93.4433 23.992C93.9019 23.992 94.3019 23.88 94.6433 23.656C94.9953 23.432 95.2673 23.1067 95.4593 22.68C95.6513 22.2533 95.7473 21.7253 95.7473 21.096C95.7473 20.1573 95.5393 19.4427 95.1233 18.952C94.7073 18.4613 94.1473 18.216 93.4433 18.216C92.9739 18.216 92.5633 18.328 92.2113 18.552C91.8699 18.7653 91.6033 19.0853 91.4113 19.512C91.2299 19.9387 91.1393 20.4667 91.1393 21.096C91.1393 22.0347 91.3473 22.7547 91.7633 23.256C92.1793 23.7467 92.7393 23.992 93.4433 23.992ZM102.402 25.144C101.634 25.144 100.967 24.9787 100.402 24.648C99.8365 24.3173 99.3992 23.848 99.0899 23.24C98.7805 22.632 98.6259 21.9173 98.6259 21.096C98.6259 20.4773 98.7112 19.9227 98.8819 19.432C99.0632 18.9307 99.3192 18.504 99.6499 18.152C99.9805 17.8 100.375 17.5333 100.834 17.352C101.303 17.16 101.826 17.064 102.402 17.064C103.17 17.064 103.837 17.2293 104.402 17.56C104.967 17.8907 105.405 18.36 105.714 18.968C106.023 19.5653 106.178 20.2747 106.178 21.096C106.178 21.7147 106.087 22.2747 105.906 22.776C105.735 23.2773 105.485 23.704 105.154 24.056C104.823 24.408 104.423 24.68 103.954 24.872C103.495 25.0533 102.978 25.144 102.402 25.144ZM102.402 23.992C102.871 23.992 103.277 23.88 103.618 23.656C103.97 23.432 104.237 23.1067 104.418 22.68C104.61 22.2533 104.706 21.7253 104.706 21.096C104.706 20.1573 104.498 19.4427 104.082 18.952C103.666 18.4613 103.106 18.216 102.402 18.216C101.943 18.216 101.538 18.328 101.186 18.552C100.845 18.7653 100.578 19.0853 100.386 19.512C100.194 19.9387 100.098 20.4667 100.098 21.096C100.098 22.0347 100.306 22.7547 100.722 23.256C101.149 23.7467 101.709 23.992 102.402 23.992ZM113.195 25.144C112.075 25.144 111.115 24.9093 110.315 24.44C109.515 23.9707 108.896 23.304 108.459 22.44C108.032 21.5653 107.819 20.536 107.819 19.352C107.819 18.4667 107.942 17.672 108.187 16.968C108.432 16.2533 108.784 15.6453 109.243 15.144C109.702 14.632 110.262 14.2427 110.923 13.976C111.595 13.7093 112.352 13.576 113.195 13.576C113.835 13.576 114.448 13.6667 115.035 13.848C115.632 14.0293 116.144 14.2853 116.571 14.616C116.742 14.7333 116.854 14.8667 116.907 15.016C116.96 15.1653 116.966 15.3093 116.923 15.448C116.891 15.576 116.822 15.688 116.715 15.784C116.619 15.8693 116.496 15.9173 116.347 15.928C116.198 15.928 116.038 15.8693 115.867 15.752C115.494 15.464 115.083 15.256 114.635 15.128C114.198 14.9893 113.728 14.92 113.227 14.92C112.406 14.92 111.707 15.096 111.131 15.448C110.566 15.7893 110.134 16.2907 109.835 16.952C109.547 17.6027 109.403 18.4027 109.403 19.352C109.403 20.2907 109.547 21.096 109.835 21.768C110.134 22.4293 110.566 22.936 111.131 23.288C111.707 23.6293 112.406 23.8 113.227 23.8C113.728 23.8 114.203 23.7307 114.651 23.592C115.11 23.4533 115.531 23.24 115.915 22.952C116.086 22.8347 116.24 22.7813 116.379 22.792C116.528 22.8027 116.651 22.8507 116.747 22.936C116.843 23.0107 116.907 23.1173 116.939 23.256C116.982 23.384 116.982 23.5173 116.939 23.656C116.896 23.7947 116.8 23.9173 116.651 24.024C116.214 24.3973 115.691 24.68 115.083 24.872C114.486 25.0533 113.856 25.144 113.195 25.144ZM121.288 25.144C120.488 25.144 119.88 24.9093 119.464 24.44C119.048 23.96 118.84 23.272 118.84 22.376V14.344C118.84 14.0987 118.904 13.9173 119.032 13.8C119.16 13.672 119.336 13.608 119.56 13.608C119.795 13.608 119.976 13.672 120.104 13.8C120.232 13.9173 120.296 14.0987 120.296 14.344V22.264C120.296 22.8187 120.408 23.2347 120.632 23.512C120.867 23.7787 121.197 23.912 121.624 23.912C121.72 23.912 121.805 23.912 121.88 23.912C121.955 23.9013 122.029 23.8907 122.104 23.88C122.221 23.8693 122.307 23.9013 122.36 23.976C122.413 24.0507 122.44 24.2 122.44 24.424C122.44 24.6267 122.392 24.7867 122.296 24.904C122.211 25.0107 122.067 25.08 121.864 25.112C121.768 25.1227 121.672 25.128 121.576 25.128C121.48 25.1387 121.384 25.144 121.288 25.144ZM127.174 25.144C126.332 25.144 125.606 24.984 124.998 24.664C124.401 24.3333 123.937 23.8693 123.606 23.272C123.276 22.664 123.11 21.9493 123.11 21.128C123.11 20.3173 123.27 19.608 123.59 19C123.921 18.392 124.369 17.9173 124.934 17.576C125.51 17.2347 126.166 17.064 126.902 17.064C127.425 17.064 127.894 17.1547 128.31 17.336C128.737 17.5067 129.1 17.7573 129.398 18.088C129.697 18.4187 129.921 18.824 130.07 19.304C130.23 19.7733 130.31 20.3067 130.31 20.904C130.31 21.0747 130.257 21.208 130.15 21.304C130.054 21.3893 129.91 21.432 129.718 21.432H124.246V20.504H129.35L129.078 20.728C129.078 20.1733 128.993 19.704 128.822 19.32C128.662 18.9253 128.422 18.6267 128.102 18.424C127.793 18.2213 127.404 18.12 126.934 18.12C126.422 18.12 125.985 18.2427 125.622 18.488C125.26 18.7227 124.982 19.0587 124.79 19.496C124.598 19.9227 124.502 20.4187 124.502 20.984V21.08C124.502 22.04 124.732 22.7653 125.19 23.256C125.649 23.7467 126.31 23.992 127.174 23.992C127.516 23.992 127.862 23.9493 128.214 23.864C128.577 23.7787 128.924 23.624 129.254 23.4C129.414 23.304 129.558 23.2613 129.686 23.272C129.825 23.272 129.937 23.3147 130.022 23.4C130.108 23.4747 130.161 23.5707 130.182 23.688C130.204 23.7947 130.188 23.912 130.134 24.04C130.081 24.168 129.98 24.28 129.83 24.376C129.478 24.6213 129.057 24.8133 128.566 24.952C128.086 25.08 127.622 25.144 127.174 25.144ZM134.601 25.144C134.068 25.144 133.582 25.0373 133.145 24.824C132.718 24.6107 132.382 24.3227 132.137 23.96C131.902 23.5973 131.785 23.192 131.785 22.744C131.785 22.168 131.929 21.7147 132.217 21.384C132.505 21.0533 132.99 20.8187 133.673 20.68C134.356 20.5307 135.273 20.456 136.425 20.456H137.177V21.384H136.457C135.636 21.384 134.985 21.4213 134.505 21.496C134.036 21.5707 133.705 21.704 133.513 21.896C133.321 22.0773 133.225 22.3333 133.225 22.664C133.225 23.08 133.369 23.4213 133.657 23.688C133.956 23.9547 134.361 24.088 134.873 24.088C135.278 24.088 135.636 23.992 135.945 23.8C136.254 23.5973 136.5 23.3307 136.681 23C136.862 22.6587 136.953 22.2693 136.953 21.832V19.992C136.953 19.3627 136.825 18.9093 136.569 18.632C136.313 18.344 135.881 18.2 135.273 18.2C134.921 18.2 134.558 18.248 134.185 18.344C133.812 18.44 133.422 18.5893 133.017 18.792C132.857 18.8667 132.718 18.8933 132.601 18.872C132.484 18.84 132.388 18.776 132.313 18.68C132.249 18.5733 132.212 18.4613 132.201 18.344C132.201 18.216 132.228 18.0933 132.281 17.976C132.345 17.8587 132.452 17.7733 132.601 17.72C133.07 17.4853 133.534 17.32 133.993 17.224C134.462 17.1173 134.9 17.064 135.305 17.064C135.998 17.064 136.569 17.176 137.017 17.4C137.465 17.6133 137.801 17.9493 138.025 18.408C138.249 18.856 138.361 19.432 138.361 20.136V24.36C138.361 24.6053 138.302 24.792 138.185 24.92C138.068 25.048 137.897 25.112 137.673 25.112C137.46 25.112 137.289 25.048 137.161 24.92C137.044 24.792 136.985 24.6053 136.985 24.36V23.224H137.129C137.044 23.6187 136.884 23.96 136.649 24.248C136.414 24.536 136.121 24.76 135.769 24.92C135.428 25.0693 135.038 25.144 134.601 25.144ZM141.372 25.112C141.148 25.112 140.972 25.048 140.844 24.92C140.716 24.792 140.652 24.6053 140.652 24.36V17.832C140.652 17.5867 140.716 17.4053 140.844 17.288C140.972 17.16 141.148 17.096 141.372 17.096C141.596 17.096 141.767 17.16 141.884 17.288C142.012 17.4053 142.076 17.5867 142.076 17.832V19.144L141.9 18.904C142.124 18.296 142.487 17.8373 142.988 17.528C143.5 17.2187 144.082 17.064 144.732 17.064C145.362 17.064 145.879 17.176 146.284 17.4C146.69 17.624 146.994 17.9653 147.196 18.424C147.399 18.8827 147.5 19.464 147.5 20.168V24.36C147.5 24.6053 147.436 24.792 147.308 24.92C147.191 25.048 147.015 25.112 146.78 25.112C146.546 25.112 146.364 25.048 146.236 24.92C146.108 24.792 146.044 24.6053 146.044 24.36V20.248C146.044 19.5547 145.911 19.048 145.644 18.728C145.378 18.408 144.951 18.248 144.364 18.248C143.682 18.248 143.132 18.4613 142.716 18.888C142.311 19.304 142.108 19.8693 142.108 20.584V24.36C142.108 24.8613 141.863 25.112 141.372 25.112ZM153.409 25.144C152.566 25.144 151.841 24.984 151.233 24.664C150.635 24.3333 150.171 23.8693 149.841 23.272C149.51 22.664 149.345 21.9493 149.345 21.128C149.345 20.3173 149.505 19.608 149.825 19C150.155 18.392 150.603 17.9173 151.169 17.576C151.745 17.2347 152.401 17.064 153.137 17.064C153.659 17.064 154.129 17.1547 154.545 17.336C154.971 17.5067 155.334 17.7573 155.633 18.088C155.931 18.4187 156.155 18.824 156.305 19.304C156.465 19.7733 156.545 20.3067 156.545 20.904C156.545 21.0747 156.491 21.208 156.385 21.304C156.289 21.3893 156.145 21.432 155.953 21.432H150.481V20.504H155.585L155.313 20.728C155.313 20.1733 155.227 19.704 155.057 19.32C154.897 18.9253 154.657 18.6267 154.337 18.424C154.027 18.2213 153.638 18.12 153.169 18.12C152.657 18.12 152.219 18.2427 151.857 18.488C151.494 18.7227 151.217 19.0587 151.025 19.496C150.833 19.9227 150.737 20.4187 150.737 20.984V21.08C150.737 22.04 150.966 22.7653 151.425 23.256C151.883 23.7467 152.545 23.992 153.409 23.992C153.75 23.992 154.097 23.9493 154.449 23.864C154.811 23.7787 155.158 23.624 155.489 23.4C155.649 23.304 155.793 23.2613 155.921 23.272C156.059 23.272 156.171 23.3147 156.257 23.4C156.342 23.4747 156.395 23.5707 156.417 23.688C156.438 23.7947 156.422 23.912 156.369 24.04C156.315 24.168 156.214 24.28 156.065 24.376C155.713 24.6213 155.291 24.8133 154.801 24.952C154.321 25.08 153.857 25.144 153.409 25.144ZM159.108 25.112C158.862 25.112 158.676 25.048 158.548 24.92C158.42 24.792 158.356 24.6053 158.356 24.36V17.832C158.356 17.5867 158.42 17.4053 158.548 17.288C158.676 17.16 158.852 17.096 159.076 17.096C159.3 17.096 159.47 17.16 159.588 17.288C159.716 17.4053 159.78 17.5867 159.78 17.832V19.064H159.62C159.79 18.424 160.11 17.9387 160.58 17.608C161.049 17.2773 161.641 17.0907 162.356 17.048C162.526 17.0373 162.665 17.08 162.772 17.176C162.878 17.2613 162.937 17.4107 162.948 17.624C162.958 17.8267 162.91 17.992 162.804 18.12C162.697 18.2373 162.532 18.3067 162.308 18.328L162.02 18.344C161.316 18.4187 160.772 18.648 160.388 19.032C160.014 19.416 159.828 19.944 159.828 20.616V24.36C159.828 24.6053 159.764 24.792 159.636 24.92C159.518 25.048 159.342 25.112 159.108 25.112Z" fill="white"/>
<path d="M9.59994 30.7591C9.57662 30.6508 11.0541 28.5584 11.74 27.6061C11.9722 27.6652 12.6802 28.0397 12.7832 28.1063C12.9118 28.1896 11.6712 30.5222 11.5475 30.7301C11.4692 30.8615 11.1384 31.0377 10.828 31.11C10.5176 31.1824 9.62316 30.8668 9.59994 30.7591Z" fill="#868686"/>
<path d="M10.2972 30.3442C10.281 30.2687 11.2684 28.8546 11.7716 28.1847C11.9395 28.2246 12.3113 28.3906 12.3855 28.4365C12.4782 28.4939 11.608 29.993 11.517 30.139C11.4594 30.2314 11.26 30.5253 11.0346 30.5778C10.8092 30.6303 10.3133 30.4194 10.2972 30.3442Z" fill="#EBDCB1"/>
<path d="M11.7126 27.5934C11.8625 27.8243 11.5994 28.192 11.4502 28.3405C10.7324 29.0626 9.98081 29.6753 9.24296 30.3688C8.76662 30.8155 7.13725 30.1276 6.9316 29.3931C6.83354 29.0414 7.27751 28.8167 7.45137 28.7068C8.40393 28.0965 9.36974 27.6481 10.3321 27.0605C10.8879 26.7257 11.3354 27.2093 11.7126 27.5934Z" fill="#868686"/>
<path d="M11.2026 27.8809C11.3414 28.0474 11.1378 28.1845 11.0246 28.2772C10.4802 28.728 9.93453 29.1806 9.37649 29.6151C9.01627 29.895 8.02888 29.5598 7.90413 29.1321C7.84469 28.9273 8.00594 28.8525 8.13565 28.7818C8.84663 28.3894 9.55868 28.0017 10.276 27.6224C10.6901 27.4061 10.9469 27.6421 11.2026 27.8809Z" fill="#EBDCB1"/>
<path d="M52.758 30.3184C52.7813 30.2101 51.3038 28.1177 50.6179 27.1654C50.3857 27.2246 49.6777 27.5991 49.5748 27.6657C49.4461 27.7489 50.6867 30.0816 50.8105 30.2895C50.8887 30.4209 51.2195 30.5971 51.5299 30.6694C51.8403 30.7417 52.7348 30.4262 52.758 30.3184Z" fill="#868686"/>
<path d="M52.0607 29.9037C52.077 29.8282 51.0895 28.4141 50.5863 27.7442C50.4184 27.784 50.0466 27.9501 49.9724 27.996C49.8797 28.0533 50.7499 29.5524 50.8409 29.6985C50.8985 29.7908 51.0979 30.0848 51.3233 30.1373C51.5487 30.1898 52.0446 29.9789 52.0607 29.9037Z" fill="#EBDCB1"/>
<path d="M50.6453 27.1527C50.4954 27.3836 50.7585 27.7513 50.9077 27.8998C51.6255 28.6219 52.3771 29.2347 53.1149 29.9281C53.5913 30.3748 55.2207 29.6869 55.4263 28.9524C55.5244 28.6007 55.0804 28.376 54.9065 28.2661C53.954 27.6558 52.9882 27.2074 52.0258 26.6198C51.47 26.285 51.0225 26.7686 50.6453 27.1527Z" fill="#868686"/>
<path d="M51.1563 27.4403C51.0175 27.6068 51.2211 27.7439 51.3343 27.8367C51.8787 28.2875 52.4244 28.7401 52.9824 29.1746C53.3426 29.4545 54.33 29.1193 54.4548 28.6916C54.5142 28.4868 54.3529 28.412 54.2232 28.3413C53.5123 27.9489 52.8002 27.5611 52.0829 27.1819C51.6688 26.9655 51.412 27.2016 51.1563 27.4403Z" fill="#EBDCB1"/>
<path d="M11.0531 27.5108L10.8982 27.6208L10.057 27.0498L8.95223 26.0798L8.84175 25.9698L8.64319 25.7496L8.51031 25.6396L8.39987 25.5295L8.17887 25.3093C8.17887 25.3093 8.18428 25.2909 7.73616 24.8067C6.22444 23.1787 5.68994 21.2422 5.79612 19.0439C5.8861 17.1684 5.9059 15.2804 5.79432 13.4067C5.61075 10.3567 7.02169 8.13874 9.27848 6.32957C12.5287 3.72251 16.362 2.3885 20.3644 1.50812C25.7868 0.315755 31.265 0.123897 36.7738 0.798076C37.1446 0.842902 37.4883 1.02041 37.8518 1.12799C37.8536 1.23378 37.8554 1.33778 37.8554 1.44357C35.9226 1.27682 33.9933 1.02221 32.0569 0.959453C28.1318 0.830355 24.2319 1.16924 20.3968 2.02272C16.3368 2.92641 12.4639 4.29449 9.22449 7.03244C5.74033 9.9766 5.25441 14.1239 8.52441 17.3818C10.6966 19.546 13.3439 20.8782 16.1892 21.8769C19.533 23.0496 22.9866 23.6897 26.5211 23.9479C29.8415 24.1899 33.1511 24.1648 36.4607 23.8026C39.2016 23.5014 41.8615 22.8308 44.5142 22.1208C44.5106 22.2212 44.507 22.3216 44.5034 22.422C44.3918 22.7232 44.1219 22.7358 43.8609 22.8201C40.7781 23.808 37.5945 24.3782 34.3857 24.5396C29.8217 24.7709 25.2487 24.7171 20.7424 23.7022C17.251 22.9151 13.8964 21.8034 10.8388 19.9136C9.05172 18.8091 7.59219 17.3621 6.35941 15.4131C6.35941 16.9999 6.4134 18.3662 6.34682 19.7289C6.24603 21.7855 7.09548 23.3938 8.46502 24.8498C9.22269 25.6531 10.2251 26.1695 10.8982 27.0498C10.8244 27.1287 10.7524 27.2094 10.6786 27.2883C10.4699 27.2076 9.72559 26.6302 9.72559 26.6302L10.1675 26.9604L10.6786 27.0498L11.0531 27.5108Z" fill="#868686"/>
<path d="M37.8547 1.44302C37.8529 1.33723 37.8511 1.23323 37.8511 1.12744C40.2249 1.12923 42.4582 1.83749 44.6664 2.57263C47.8447 3.63052 50.8357 5.05239 53.1897 7.53573C54.6744 9.10284 55.4663 10.9299 55.4303 13.1138C55.3943 15.2332 55.4123 17.3544 55.4231 19.4755C55.4321 21.3098 54.9671 22.8819 53.8064 24.3181C53.7485 24.3764 53.6642 24.4917 53.5854 24.5382L53.254 24.8684L53.033 25.0886L52.7016 25.4194L52.4806 25.6389L52.2597 25.8591L52.0387 26.0792L51.8177 26.2994L51.5968 26.5195L51.3758 26.7397L51.0444 26.9598C51.0444 26.9598 50.6413 27.2447 50.267 27.4706C44.922 30.6945 39.0119 31.8259 32.8732 32.1289C27.0135 32.4176 21.2905 31.747 15.7404 29.7944C14.3834 29.3175 13.0678 28.7885 11.8242 28.0605C11.8242 28.0605 11.6209 27.9172 11.0508 27.7303C10.6898 27.5062 10.7265 27.4294 10.6797 27.2842C10.7535 27.2053 10.6924 27.0277 10.7662 26.9488C11.0667 27.0761 11.5183 27.2698 11.7991 27.4294C13.4854 28.394 15.249 29.1417 17.1153 29.7209C21.834 31.1876 26.6518 31.704 31.5757 31.6179C35.6267 31.548 39.5824 31.0208 43.4805 29.902C46.1422 29.1382 48.6329 28.0749 50.8681 26.4558C52.9539 24.9443 54.5772 23.1297 54.8508 20.3971C55.0001 18.9053 54.4389 17.7625 54.4893 16.2761C54.4947 16.1057 55.0721 15.5111 54.7482 15.3946C54.0481 16.6497 53.0576 17.7929 51.8195 18.5943C51.5027 18.1999 52.0289 18.059 52.2592 17.8277C55.8424 14.2488 55.8172 10.6215 52.1117 7.16457C50.0025 5.19762 47.4037 4.05188 44.7132 3.10336C42.4816 2.3234 40.1673 1.88769 37.8547 1.44302Z" fill="#868686"/>
<path d="M51.6151 18.8552L51.6115 18.8588C51.7302 18.7978 51.8054 18.6831 51.9242 18.6221L51.9305 18.4843C52.1941 18.2365 54.3611 16.393 54.9135 15.0721C54.9571 15.3358 54.9355 15.7622 54.93 15.9343C54.8815 17.4226 54.9948 18.9072 54.8455 20.399C54.5737 23.1316 52.9504 24.9461 50.8628 26.4576C48.6276 28.0785 46.1351 29.1418 43.4752 29.9038C39.5771 31.0209 35.6214 31.548 31.5703 31.6198C26.6464 31.7058 21.8287 31.1894 17.11 29.7227C15.2455 29.1436 13.48 28.3959 11.7938 27.4313C11.513 27.2699 10.7662 26.949 10.7662 26.949C10.7662 26.949 9.21663 25.6508 8.46077 24.8475C7.09122 23.3916 6.24177 21.7832 6.34255 19.7266C6.40914 18.3639 6.35515 16.9958 6.35515 15.4108C7.58793 17.3598 9.04746 18.8068 10.8345 19.9113C13.894 21.7993 17.2486 22.9128 20.7381 23.7C25.2445 24.7148 29.8175 24.7686 34.3814 24.5373C37.5902 24.3759 40.7738 23.8057 43.8567 22.8178C44.1176 22.7335 44.3894 22.7228 44.4992 22.4215C45.3504 22.4018 46.0919 22.1741 46.5202 21.3565C46.6228 21.2991 46.7254 21.2435 46.8279 21.1861C46.8297 21.4443 46.9683 21.6308 47.2095 21.5089C48.3325 20.9441 49.5922 20.6016 50.4363 19.5742C50.6918 19.5903 50.8268 19.4863 50.7962 19.2156H50.798C51.1705 19.3124 51.4027 19.1044 51.6151 18.8552Z" fill="#EBDCB1"/>
<path d="M46.5269 21.3534C46.0986 22.171 45.3571 22.3987 44.5059 22.4185C44.5095 22.318 44.5131 22.2176 44.5167 22.1154C45.1861 21.8626 45.8574 21.608 46.5269 21.3534Z" fill="#868686"/>
<path d="M44.1458 8.28699C44.7433 8.66532 44.9466 9.31081 45.2418 9.89354C45.2382 9.94912 45.2382 10.0065 45.2436 10.0621C45.1572 10.0406 45.0708 10.0208 44.9844 9.99933C44.9466 9.97064 44.9142 9.97961 44.8854 10.028C44.871 10.1105 44.8566 10.193 44.844 10.2755C44.7846 10.2091 44.7271 10.1428 44.6677 10.0764C44.6497 9.5421 44.3005 9.18888 43.973 8.8231C43.9712 8.76393 43.9712 8.70476 43.9712 8.64559C43.9748 8.50036 44.0072 8.36767 44.1458 8.28699Z" fill="#868686"/>
<path d="M40.8662 6.37778C41.0588 6.35626 41.2513 6.33475 41.4439 6.31323C41.5699 6.37061 41.6941 6.42798 41.82 6.48536C42.1908 6.7579 42.7487 6.78301 42.9214 7.31733C42.7775 7.34243 42.6353 7.36933 42.4913 7.39443C42.4301 7.39443 42.3689 7.39443 42.3095 7.39622C41.9514 6.88342 41.1884 6.94079 40.8662 6.37778Z" fill="#868686"/>
<path d="M42.9217 7.31736C42.7507 6.78304 42.191 6.75973 41.8203 6.48539C43.0135 6.06941 43.2439 6.20927 43.2457 7.35143C43.1377 7.34067 43.0297 7.32812 42.9217 7.31736Z" fill="#DCDEDD"/>
<path d="M44.1307 8.12553C44.0767 8.06277 44.0227 8.00002 43.9688 7.93906C44.2333 7.43522 44.1037 6.68752 44.8704 6.49567C44.7462 7.09275 44.3827 7.58403 44.1307 8.12553Z" fill="#DCDEDD"/>
<path d="M29.7596 6.31466C28.0193 6.31466 26.2808 6.31465 24.5405 6.31645C24.6881 6.10487 24.9203 5.97936 25.1488 5.97936C26.6335 5.97578 28.1165 5.9955 29.6012 6.02598C29.6552 6.02598 29.7074 6.21425 29.7596 6.31466Z" fill="#E3E3E2"/>
<path d="M34.4373 6.31679C34.1277 6.31679 33.82 6.31679 33.4943 6.31679C33.5195 6.72022 33.9442 6.8565 33.8992 7.21152C33.4925 7.16848 33.2495 6.94077 33.1919 6.54271C33.1505 6.25404 33.3539 6.09804 33.5914 6.03708C33.9172 5.95281 34.3077 5.76992 34.4373 6.31679Z" fill="#E3E3E2"/>
<path d="M37.4923 6.85274C37.6596 5.89885 36.902 6.48338 36.5942 6.31662C36.7454 5.72672 37.1971 5.98133 37.5391 6.01181C37.7298 6.02795 37.9728 6.12657 37.9962 6.37042C38.0286 6.7093 37.7946 6.82764 37.4923 6.85274Z" fill="#E3E3E2"/>
<path d="M33.4175 10.9085C33.79 10.7328 34.096 10.8099 34.6449 10.8207C34.1302 11.1434 33.8422 11.2725 33.4175 10.9085Z" fill="#E3E3E2"/>
<path d="M36.5973 6.31512C36.5469 6.76517 36.2104 6.98751 35.8774 7.21343C35.8558 6.706 36.0718 6.38864 36.5973 6.31512Z" fill="#E3E3E2"/>
<path d="M35.8768 7.21304C35.8516 7.40311 35.7904 7.57345 35.5528 7.54117C35.2667 7.50172 35.1749 7.29015 35.1533 7.03195C35.3945 7.09291 35.6356 7.15208 35.8768 7.21304Z" fill="#E3E3E2"/>
<path d="M35.1555 7.03367C34.8657 6.87588 34.6372 6.67148 34.6084 6.31467C35.0799 6.33439 35.1735 6.64099 35.1555 7.03367Z" fill="#E3E3E2"/>
<path d="M37.6761 10.6127C37.6149 10.4352 37.5537 10.2577 37.4907 10.0802C37.7067 10.091 37.9118 10.1465 37.9586 10.3796C38 10.5787 37.8183 10.5894 37.6761 10.6127Z" fill="#E3E3E2"/>
<path d="M34.2568 9.36322C34.237 9.5748 34.192 9.77382 33.9437 9.82403C33.8411 9.84554 33.7709 9.77383 33.7925 9.67162C33.8447 9.42419 34.0426 9.37936 34.2568 9.36322C34.2568 9.36143 34.2568 9.36322 34.2568 9.36322Z" fill="#E3E3E2"/>
<path d="M33.8958 7.20959C34.1315 7.3118 34.2539 7.4911 34.2575 7.7493C33.8868 7.73495 33.8922 7.47138 33.8958 7.20959Z" fill="#E3E3E2"/>
<path d="M34.2556 7.7478C34.4932 7.85001 34.612 8.02931 34.6174 8.28751C34.2466 8.27316 34.252 8.00959 34.2556 7.7478Z" fill="#E3E3E2"/>
<path d="M35.6958 9.89777C35.9316 9.90315 36.0485 10.0251 36.0557 10.2582C35.82 10.2546 35.7012 10.1327 35.6958 9.89777Z" fill="#E3E3E2"/>
<path d="M36.7739 9.19453C36.6318 9.11205 36.5958 8.97399 36.585 8.82516C36.7433 8.89868 36.7739 9.03853 36.7739 9.19453Z" fill="#E3E3E2"/>
<path d="M37.3115 7.20992C37.3133 7.0611 37.3493 6.92841 37.4933 6.84952C37.4915 7.00013 37.4609 7.13461 37.3115 7.20992Z" fill="#E3E3E2"/>
<path d="M36.7627 7.92674C36.7753 7.77792 36.8113 7.64165 36.9535 7.55917C36.9535 7.71337 36.9229 7.85323 36.7627 7.92674Z" fill="#E3E3E2"/>
<path d="M37.123 7.38839C37.1859 7.32939 37.2505 7.2686 37.3133 7.20959C37.2505 7.2686 37.1859 7.32939 37.123 7.38839Z" fill="#E3E3E2"/>
<path d="M37.4928 10.0798C37.4318 10.019 37.3725 9.95999 37.3115 9.8992C37.3725 9.95999 37.4336 10.019 37.4928 10.0798Z" fill="#E3E3E2"/>
<path d="M34.6162 8.28314C34.6772 8.34393 34.7365 8.40294 34.7975 8.46373C34.7365 8.40473 34.6772 8.34393 34.6162 8.28314Z" fill="#E3E3E2"/>
<path d="M47.0393 21.0826L44.1382 22.2176V22.6605V22.7376L47.3596 21.4359L47.0393 21.0826Z" fill="#868686"/>
<path d="M45.403 10.6269C45.403 10.6269 44.8667 8.83389 43.8643 7.85669L45.403 10.6269Z" fill="#868686"/>
<path d="M41.2708 6.59777L41.4508 6.50811V6.41846L41.0908 5.88055H39.8311L40.101 6.14951L41.2708 6.59777Z" fill="#868686"/>
<ellipse cx="30.4733" cy="12.5846" rx="24.6555" ry="12.2619" fill="#868686"/>
<path d="M54.1893 12.8876C54.1893 19.3293 43.8041 24.5514 30.9933 24.5514C18.1826 24.5514 7.79736 19.3293 7.79736 12.8876C7.79736 6.44594 18.1826 1.22391 30.9933 1.22391C43.8041 1.22391 54.1893 6.44594 54.1893 12.8876Z" fill="#868686"/>
<path d="M35.9374 28.382C35.8162 28.0962 36.0006 27.7736 36.3077 27.7275C43.9674 26.5776 47.6695 24.8358 52.9233 20.7478C53.1701 20.5558 53.5339 20.6485 53.6561 20.9366C53.7371 21.1279 53.6823 21.3507 53.5227 21.4833C48.4016 25.7356 44.8216 27.598 36.4359 28.6666C36.2257 28.6934 36.02 28.5769 35.9374 28.382Z" fill="#EFEEEE"/>
<path d="M25.5602 28.1173C25.6807 27.8329 25.4949 27.5121 25.1888 27.469C16.6555 26.2694 12.5836 24.6004 8.57184 20.5983C8.33882 20.3658 7.94039 20.4385 7.81182 20.7419C7.74586 20.8975 7.77142 21.0776 7.87938 21.2075C11.1447 25.1349 14.9581 27.0007 25.0597 28.3985C25.2697 28.4276 25.4775 28.3124 25.5602 28.1173Z" fill="#EFEEEE"/>
<ellipse cx="30.6687" cy="12.585" rx="23.8206" ry="11.7345" fill="#DCDEDD"/>
<path d="M48.7262 12.4528C48.7262 14.4055 47.0729 16.4572 43.7451 18.0802C40.4844 19.6704 35.9096 20.6822 30.802 20.6822C25.6945 20.6822 21.1197 19.6704 17.859 18.0802C14.5312 16.4572 12.8779 14.4055 12.8779 12.4528C12.8779 10.5002 14.5312 8.44846 17.859 6.82547C21.1197 5.23523 25.6945 4.22345 30.802 4.22345C35.9096 4.22345 40.4844 5.23523 43.7451 6.82547C47.0729 8.44846 48.7262 10.5002 48.7262 12.4528Z" fill="white" stroke="#868686" stroke-width="2"/>
<path d="M47.8428 12.6338C47.8428 14.2885 46.422 16.2123 43.1426 17.8117C39.9639 19.362 35.4672 20.3632 30.4187 20.3632C25.3703 20.3632 20.8736 19.362 17.6949 17.8117C14.4155 16.2123 12.9946 14.2885 12.9946 12.6338C12.9946 10.9791 14.4155 9.05523 17.6949 7.45584C20.8736 5.90557 25.3703 4.90442 30.4187 4.90442C35.4672 4.90442 39.9639 5.90557 43.1426 7.45584C46.422 9.05523 47.8428 10.9791 47.8428 12.6338Z" stroke="#868686" stroke-width="3"/>
<path d="M19.0229 6.12411L30.5362 12.0573L48.2693 12.5847" stroke="#868686"/>
<ellipse cx="30.6687" cy="12.585" rx="23.8206" ry="11.7345" fill="#FFF3CF"/>
<path d="M46.1326 10.799C46.1326 12.6869 44.4741 14.4745 41.6087 15.8048C38.764 17.1254 34.8165 17.9489 30.4428 17.9489C26.069 17.9489 22.1216 17.1254 19.2769 15.8048C16.4114 14.4745 14.7529 12.6869 14.7529 10.799C14.7529 8.91113 16.4114 7.12354 19.2769 5.7933C22.1216 4.47268 26.069 3.64917 30.4428 3.64917C34.8165 3.64917 38.764 4.47268 41.6087 5.7933C44.4741 7.12354 46.1326 8.91113 46.1326 10.799Z" fill="#FAFAFA" stroke="#868686" stroke-width="0.5"/>
<ellipse cx="30.6886" cy="14.2932" rx="1.58804" ry="1.58218" fill="#868686"/>
<ellipse cx="30.6891" cy="14.2937" rx="1.05869" ry="1.05479" fill="#A6D938"/>
<g opacity="0.15" filter="url(#filter0_df_3_21)">
<path d="M54.7695 35.7698C54.7695 38.2843 44.0282 40.3227 30.7781 40.3227C17.528 40.3227 6.78662 38.2843 6.78662 35.7698C6.78662 33.2553 17.528 31.2169 30.7781 31.2169C44.0282 31.2169 54.7695 33.2553 54.7695 35.7698Z" fill="#03293E"/>
</g>
<defs>
<filter id="filter0_df_3_21" x="0.786621" y="25.2169" width="59.9829" height="21.1059" filterUnits="userSpaceOnUse" color-interpolation-filters="sRGB">
<feFlood flood-opacity="0" result="BackgroundImageFix"/>
<feColorMatrix in="SourceAlpha" type="matrix" values="0 0 0 0 0 0 0 0 0 0 0 0 0 0 0 0 0 0 127 0" result="hardAlpha"/>
<feOffset/>
<feGaussianBlur stdDeviation="3"/>
<feComposite in2="hardAlpha" operator="out"/>
<feColorMatrix type="matrix" values="0 0 0 0 0.321615 0 0 0 0 0.66068 0 0 0 0 0.8125 0 0 0 1 0"/>
<feBlend mode="normal" in2="BackgroundImageFix" result="effect1_dropShadow_3_21"/>
<feBlend mode="normal" in="SourceGraphic" in2="effect1_dropShadow_3_21" result="shape"/>
<feGaussianBlur stdDeviation="2" result="effect2_foregroundBlur_3_21"/>
</filter>
</defs>
</svg>
